<?xml version="1.0" encoding="utf-8"?>
<!-- Generator: Adobe Illustrator 27.5.0, SVG Export Plug-In . SVG Version: 6.00 Build 0)  -->
<svg version="1.1" xmlns="http://www.w3.org/2000/svg" xmlns:xlink="http://www.w3.org/1999/xlink" x="0px" y="0px"
	 viewBox="0 0 750 500" style="enable-background:new 0 0 750 500;" xml:space="preserve">
<g id="BACKGROUND">
	<rect id="XMLID_20_" style="fill:#FFFFFF;" width="750" height="500"/>
</g>
<g id="OBJECT">
	<g id="XMLID_497_">
		<g id="XMLID_258_">
			<polygon id="XMLID_24_" style="fill:#6693AA;" points="361.893,144.125 361.893,15.5 665.836,177.014 666.253,309.377 			"/>
			<g id="XMLID_82_">
				<polygon id="XMLID_73_" style="fill:#F1F1F2;" points="489.657,169.35 489.657,113.71 538.206,139.711 538.206,196.529 				"/>
				<polygon id="XMLID_72_" style="fill:#AEE2FF;" points="492.514,118.493 492.514,167.765 535.349,191.747 535.349,141.434 				
					"/>
				<polygon id="XMLID_23_" style="fill:#4C7687;" points="538.206,139.711 540.817,138.883 540.817,195.008 538.206,196.529 				
					"/>
				<polygon id="XMLID_77_" style="fill:#4C7687;" points="489.657,113.71 538.206,139.711 540.817,138.883 493.254,112.696 				"/>
				<polygon id="XMLID_75_" style="fill:#BBBCBF;" points="492.514,167.765 498.067,165.133 535.349,185.633 535.349,191.747 				
					"/>
				<polygon id="XMLID_78_" style="fill:#A6A8AA;" points="498.382,121.636 498.067,165.133 492.514,167.765 492.514,118.493 				
					"/>
				<polygon id="XMLID_80_" style="fill:#A6A8AA;" points="513.931,129.963 513.931,173.856 517.727,175.944 517.727,131.997 				
					"/>
				<polygon id="XMLID_81_" style="fill:#BBBCBF;" points="519.047,176.669 519.047,132.835 517.727,131.997 517.727,175.944 				
					"/>
			</g>
			<g id="XMLID_84_">
				<polygon id="XMLID_278_" style="fill:#F1F1F2;" points="577.988,221.668 577.988,166.028 626.537,192.029 626.537,248.848 				
					"/>
				<polygon id="XMLID_262_" style="fill:#AEE2FF;" points="580.845,170.811 580.845,220.083 623.68,244.065 623.68,193.752 				"/>
				<polygon id="XMLID_235_" style="fill:#4C7687;" points="626.537,192.029 629.148,191.201 629.148,247.326 626.537,248.848 				
					"/>
				<polygon id="XMLID_233_" style="fill:#4C7687;" points="577.988,166.028 626.537,192.029 629.148,191.201 581.586,165.014 				
					"/>
				<polygon id="XMLID_232_" style="fill:#BBBCBF;" points="580.845,220.083 586.398,217.451 623.68,237.951 623.68,244.065 				"/>
				<polygon id="XMLID_185_" style="fill:#A6A8AA;" points="586.714,173.954 586.398,217.451 580.845,220.083 580.845,170.811 				
					"/>
				<polygon id="XMLID_184_" style="fill:#A6A8AA;" points="602.263,182.281 602.263,226.174 606.059,228.262 606.059,184.314 				
					"/>
				<polygon id="XMLID_183_" style="fill:#BBBCBF;" points="607.378,228.987 607.378,185.153 606.059,184.314 606.059,228.262 				
					"/>
			</g>
			<g id="XMLID_524_">
				<polygon id="XMLID_186_" style="fill:#A6A8AA;" points="388.888,118.476 388.888,61.864 461.406,101.981 461.406,159.708 				
					"/>
				<polygon id="XMLID_141_" style="fill:#272525;" points="391.294,66.844 391.294,116.117 459,154.613 459,104.3 				"/>
				<polygon id="XMLID_280_" style="fill:#D0D1D3;" points="396.038,78 396.038,99.184 425.147,115.734 425.147,94.103 				"/>
				<polygon id="XMLID_281_" style="fill:#D0D1D3;" points="439.167,98.483 439.167,119.667 450.814,126.567 450.814,104.936 				
					"/>
				<polygon id="XMLID_282_" style="fill:#D0D1D3;" points="426.833,112.202 426.833,130.997 437.167,137.119 437.167,117.928 				
					"/>
				<polygon id="XMLID_404_" style="fill:#AFA58E;" points="398,84.75 422.667,98.483 422.667,96.867 398,83.167 				"/>
				<polygon id="XMLID_407_" style="fill:#AFA58E;" points="398,88.083 422.667,101.816 422.667,100.2 398,86.5 				"/>
				<polygon id="XMLID_418_" style="fill:#AFA58E;" points="398,90.742 422.667,104.475 422.667,102.858 398,89.158 				"/>
				<polygon id="XMLID_414_" style="fill:#AFA58E;" points="398,94.075 422.667,107.808 422.667,106.192 398,92.492 				"/>
			</g>
		</g>
		<polygon id="XMLID_406_" style="fill:#86A9BF;" points="361.893,15.5 361.893,8 673.667,172.833 665.836,177.014 		"/>
		<polygon id="XMLID_408_" style="fill:#4C7687;" points="673.667,172.833 673.667,316.522 666.253,321.421 665.836,177.014 		"/>
	</g>
	<g id="XMLID_247_">
		<g id="XMLID_244_">
			<polygon id="XMLID_139_" style="fill:#847367;" points="412.802,471.574 666.253,309.377 666.253,321.421 412.802,484.5 			"/>
			<polygon id="XMLID_57_" style="fill:#BDB39B;" points="99.134,282.527 412.802,471.574 666.253,309.377 361.893,138.5 			"/>
			<g id="XMLID_398_">
				<polygon id="XMLID_397_" style="fill:#D8CCB2;" points="99.134,282.527 162.331,320.616 228,282.527 163.567,247.209 				"/>
				<polygon id="XMLID_399_" style="fill:#D8CCB2;" points="230.183,282.1 293.38,320.189 359.049,282.1 294.616,246.782 				"/>
				<polygon id="XMLID_437_" style="fill:#D8CCB2;" points="486.27,282.1 465.45,294.17 420.6,320.19 358.21,282.59 357.4,282.1 
					358.23,281.65 421.83,246.78 				"/>
				<polygon id="XMLID_411_" style="fill:#D8CCB2;" points="225.419,358.634 288.616,396.723 354.285,358.634 294.616,320.417 				
					"/>
				<polygon id="XMLID_435_" style="fill:#D8CCB2;" points="484.42,355.18 479.6,357.97 418.75,393.27 355.55,355.18 419.98,319.86 
					471.26,347.97 				"/>
				<polygon id="XMLID_453_" style="fill:#D8CCB2;" points="473.86,432.5 412.8,471.57 349.73,433.74 377.83,418.34 414.17,398.42 
					449.57,418.63 				"/>
				<polygon id="XMLID_432_" style="fill:#D8CCB2;" points="600.63,351.37 543.84,387.72 512.06,370.32 484.42,355.18 
					534.98,321.67 539.51,318.67 				"/>
				<polygon id="XMLID_433_" style="fill:#D8CCB2;" points="615.39,280.82 581.71,300.09 548.25,319.23 486.27,282.1 517.4,264.02 
					550.85,244.59 				"/>
				<polygon id="XMLID_419_" style="fill:#D8CCB2;" points="360.64,208.69 359.95,209.09 327.59,227.86 294.97,246.78 
					231.77,208.69 296.2,173.38 338.03,196.3 359.96,208.32 				"/>
				<polygon id="XMLID_485_" style="fill:#D8CCB2;" points="488.15,208.69 487.54,209.04 454.04,228.48 422.48,246.78 
					382.02,222.39 359.95,209.09 359.29,208.69 359.96,208.32 374.83,200.17 389.37,192.2 423.72,173.38 436.12,180.17 				"/>
			</g>
			<g id="XMLID_403_">
				<polygon id="XMLID_479_" style="fill:#AFA58E;" points="436.12,180.17 423.72,173.38 389.37,192.2 325.66,156.46 361.89,138.5 
									"/>
				<polygon id="XMLID_422_" style="fill:#AFA58E;" points="550.85,244.59 517.4,264.02 454.04,228.48 487.54,209.04 				"/>
				<polygon id="XMLID_472_" style="fill:#BCB2A2;" points="436.12,180.17 487.54,209.04 454.04,228.48 389.37,192.2 423.72,173.38 
									"/>
				<polygon id="XMLID_430_" style="fill:#AFA58E;" points="666.25,309.38 634.49,329.7 581.71,300.09 615.39,280.82 				"/>
				<polygon id="XMLID_425_" style="fill:#BCB2A2;" points="615.39,280.82 581.71,300.09 517.4,264.02 550.85,244.59 				"/>
			</g>
		</g>
		<polygon id="XMLID_189_" style="fill:#847367;" points="99.134,282.527 99.134,293.013 412.802,484.5 412.802,471.574 		"/>
	</g>
	<g id="XMLID_428_">
		<g id="XMLID_260_">
			<polygon id="XMLID_86_" style="fill:#86A9BF;" points="99.134,282.527 361.893,138.5 361.893,15.5 99.134,144.167 			"/>
			<polygon id="XMLID_224_" style="fill:#97BBCE;" points="362.6,93 99.134,232.964 99.134,282.527 361.893,138.5 			"/>
			<g id="XMLID_521_">
				<polygon id="XMLID_87_" style="fill:#B8996E;" points="137.774,229.907 286.189,147.781 286.189,75.13 137.774,152.167 				"/>
				<polygon id="XMLID_142_" style="fill:#434244;" points="143,154.613 143,221.098 282.223,144.841 282.223,82.5 				"/>
				<polygon id="XMLID_1_" style="fill:#6693AA;" points="137.774,152.167 286.189,75.13 282.813,74.063 133.5,150.008 				"/>
				<polygon id="XMLID_46_" style="fill:#6693AA;" points="137.774,152.167 137.774,229.907 133.5,228.125 133.5,150.008 				"/>
				
					<polygon id="XMLID_513_" style="fill:none;stroke:#FFFFFF;stroke-width:0.5;stroke-linecap:round;stroke-linejoin:round;stroke-miterlimit:10;" points="
					222,150.008 219.333,168.561 230.513,163.055 				"/>
				
					<path id="XMLID_514_" style="fill:none;stroke:#FFFFFF;stroke-width:0.5;stroke-linecap:round;stroke-linejoin:round;stroke-miterlimit:10;" d="
					M265.667,107.264c0,0-8.333,5.236-4.333,15.236s15.243,0.438,12.833-11.167C272.505,103.333,265.667,107.264,265.667,107.264z"
					/>
				
					<line id="XMLID_515_" style="fill:none;stroke:#FFFFFF;stroke-width:0.5;stroke-linecap:round;stroke-linejoin:round;stroke-miterlimit:10;" x1="204.625" y1="167.816" x2="211.981" y2="164.12"/>
				
					<line id="XMLID_511_" style="fill:none;stroke:#FFFFFF;stroke-width:0.5;stroke-linecap:round;stroke-miterlimit:10;" x1="154.25" y1="164.12" x2="249.5" y2="114.5"/>
				
					<line id="XMLID_512_" style="fill:none;stroke:#FFFFFF;stroke-width:0.5;stroke-linecap:round;stroke-miterlimit:10;" x1="154.25" y1="172.115" x2="249.5" y2="122.495"/>
			</g>
			<g id="XMLID_522_">
				<polygon id="XMLID_69_" style="fill:#FFFFD6;" points="296.667,74.063 296.667,119 324.23,103.167 325,57.625 				"/>
				<polygon id="XMLID_405_" style="fill:#E5E3AE;" points="300.167,78 300.167,113.115 309.5,107.5 309.5,72.667 				"/>
				<polygon id="XMLID_470_" style="fill:#E5E3AE;" points="311.708,71.125 311.708,77.25 322.625,71.125 322.625,65.125 				"/>
				<polygon id="XMLID_500_" style="fill:#E5E3AE;" points="311.708,81.13 311.708,87.255 322.625,81.13 322.625,75.13 				"/>
				<polygon id="XMLID_502_" style="fill:#E5E3AE;" points="311.708,91.135 311.708,97.26 322.625,91.135 322.625,85.135 				"/>
				<polygon id="XMLID_503_" style="fill:#E5E3AE;" points="311.708,101.139 311.708,107.264 322.625,101.139 322.625,95.139 				
					"/>
			</g>
		</g>
		<polygon id="XMLID_415_" style="fill:#97BBCE;" points="361.893,8 91.5,140.431 99.134,144.167 361.893,15.5 		"/>
		<polygon id="XMLID_417_" style="fill:#6693AA;" points="99.134,144.167 99.134,293.013 91.5,289.441 91.5,140.431 		"/>
	</g>
	<g id="XMLID_520_">
		<ellipse id="XMLID_477_" style="fill:#BCB2A2;" cx="285" cy="221.695" rx="17.75" ry="8.212"/>
		<g id="XMLID_103_">
			<path id="XMLID_100_" style="fill:#231A00;" d="M287.365,213.157l0.402,2.322l-0.152,3.561c0,0,2.474,0.656,3.217,0.855
				c0.742,0.198,2.705,1.116,4.62,1.198c1.915,0.082,2.613-0.639,2.627-0.972c0.014-0.333-5.507-3.882-6.232-4.466
				c-0.726-0.584-0.735-2.336-0.735-2.336L287.365,213.157z"/>
			<path id="XMLID_109_" style="fill:#231A00;" d="M275.006,213.483l-0.173,4.061c0,0-0.925,6.049-0.783,6.639
				s2.246,2.098,3.495,2.151c1.249,0.053,3.075-1.704,2.934-2.294c-0.142-0.59-2.134-6.68-2.134-6.68l0.365-2.488L275.006,213.483z"
				/>
			<path id="XMLID_68_" style="fill:#434244;" d="M288.227,166.802L288.227,166.802l-0.086-0.8l-14.191,1.794
				c0,0-1.21,3.277-1.339,6.564c-0.023,0.59-0.106,2.504-0.106,2.504l1.53,39.502c0,0,2.931,1.596,6.099,0.167l1.228-36.745
				l0.556-1.311l4.553,35.442c0,0,2.907,0.909,5.469-0.484C291.94,213.435,290.809,172.151,288.227,166.802z"/>
			<path id="XMLID_107_" style="fill:#F1F1F2;" d="M279.033,139.355l-7.837,2.966c0,0,0.244,10.68,1.513,15.293l1.241,10.182
				c0,0,5.407,1.408,9.886,0.403c3.458-0.776,4.305-2.197,4.305-2.197s1.315-12.455,1.281-16.978c-0.015-1.95-0.71-5.24-1.694-7.616
				l-4.364-1.797L279.033,139.355z"/>
			<path id="XMLID_106_" style="fill:#FFB8B0;" d="M286.901,130.066c-0.241-0.716-2.337-2.488-4.348-2.41
				c-2.011,0.077-3.797,2.064-3.797,2.064l-0.263,6.176l-0.011,0.253l-0.181,4.244c0,0,2.109,1.887,3.417,1.75
				c1.309-0.137,1.711-0.663,1.711-0.663l-0.007-1.693c2.145,0.761,2.995-1.47,3.193-2.458
				C286.972,135.546,287.141,130.781,286.901,130.066z"/>
			<path id="XMLID_105_" style="fill:#231A00;" d="M286.977,130.831c0,0-0.351,0.164-1.486,0.477
				c-1.135,0.313-3.351-0.324-3.351-0.324s0.369,1.535-1.051,2.597l0.09,1.278l-0.628,0.291c0,0-0.197-1.311-0.699-1.441
				c-0.501-0.13-0.99,1.152-0.679,2.359c0.31,1.207,0.929,1.125,0.929,1.125l-1.698,0.796c0,0-0.655-4.153-0.69-5.891
				c-0.035-1.738,0.563-2.183,0.563-2.183s-0.102-1.017,0.84-1.882c0.941-0.864,2.92-0.961,3.939-0.918
				c1.019,0.043,4.317,1.631,5.077,1.627l-0.383,0.49l0.578,0.025c0,0-0.42,2.334-1.308,3.165L286.977,130.831z"/>
			<path id="XMLID_101_" style="fill:#D0D1D3;" d="M287.728,141.409c0,0,2.615,1.341,4.552,17.452l6.974,5.259
				c0,0-1.924,0.517-2.545,3.696l-8.303-4.446C288.407,163.371,288.948,143.535,287.728,141.409z"/>
			<path id="XMLID_99_" style="fill:#FFB8B0;" d="M299.254,164.12c0,0,3.36,0.816,4.439,1.153c1.079,0.337,1.789,1.631,1.995,2.775
				s-0.563,0.856-0.863,0.388c-0.3-0.468-0.451-1.203-0.738-1.288c-0.288-0.085-0.65-0.137-0.65-0.137s0.417,0.48,0.651,0.969
				c0.234,0.489,0.445,1.518,0.393,1.88c-0.052,0.362-0.381,0.385-0.764-0.033c0,0,0.089,0.477-0.138,0.686
				c-0.228,0.209-0.762-0.069-0.951-0.769s-1.286-1.458-1.286-1.458s0.765,0.853,0.775,1.472c0.01,0.62,0.154,0.669-0.178,0.761
				c-0.332,0.092-0.533-0.317-0.867-1.024c-0.334-0.706-1.833-0.588-2.769-0.846c-0.936-0.258-1.594-0.834-1.594-0.834
				S296.752,164.543,299.254,164.12z"/>
			<path id="XMLID_26_" style="fill:#D0D1D3;" d="M273.58,141.809c-1.172-0.292-11.835,1.123-11.835,1.123l-15.258-2.501
				l-0.181,4.249c0,0,12.327,3.749,16.449,3.925c4.121,0.175,8.904,1.985,10.124,1.212
				C274.612,148.718,276.192,142.46,273.58,141.809z"/>
			<path id="XMLID_45_" style="fill:#FFB8B0;" d="M245.662,139.787c0,0-3.062-1.379-4.016-1.766
				c-0.954-0.387-3.122-1.589-3.532-1.745c-0.409-0.156-0.965,1.485,2.302,2.941c0,0-0.907,1.764-0.72,2.258
				c0.187,0.493-0.243,0.825-0.13,1.418c0.113,0.592,0.634,0.961,1.906,1.432c1.272,0.47,1.636,0.07,1.636,0.07
				s1.065,0.494,2.709,0.444C247.461,144.787,247.86,140.767,245.662,139.787z"/>
			<polygon id="XMLID_50_" style="fill:#D0D1D3;" points="278.302,138.688 282.109,142.084 280.31,143.25 277.458,139.952 			"/>
			<polygon id="XMLID_70_" style="fill:#D0D1D3;" points="283.424,140 282.109,142.084 283.906,142.906 284.25,140.431 
				283.423,139.786 			"/>
		</g>
	</g>
	<g id="XMLID_237_">
		<g id="XMLID_217_">
			<g id="XMLID_442_">
				<g id="XMLID_504_">
					<g id="XMLID_509_">
						<path id="XMLID_510_" style="fill:#AFA58E;" d="M453.7,416.24l-4.13,2.39l-35.4-20.21l-36.34,19.92
							c-2.61-1.93-4.25-3.26-4.25-3.26c-15.12-10.6,61.98-31.63,61.98-31.63L453.7,416.24z"/>
					</g>
					<g id="XMLID_507_">
						<path id="XMLID_508_" style="fill:#BCB2A2;" d="M449.57,418.63l-21.78,12.65c-1.29-0.96-2.45-1.71-3.96-1.71
							c-4.91,0.01-7.25,4.33-18.77,3.02c-8.22-0.93-20.73-9.44-27.23-14.25l36.34-19.92L449.57,418.63z"/>
					</g>
					<g id="XMLID_505_">
						<path id="XMLID_506_" style="fill:#BCB2A2;" d="M459.703,427.077c0,0-1.62,4.32-15.67,7.42c-9.75,2.15-13.32-1.05-16.24-3.22
							l25.91-15.04L459.703,427.077z"/>
					</g>
				</g>
			</g>
			<g id="XMLID_193_">
				<g id="XMLID_154_">
					<polygon id="XMLID_165_" style="fill:#272525;" points="443.759,373.085 443.759,407.888 441.725,406.29 441.725,371.796 					
						"/>
					<polygon id="XMLID_164_" style="fill:#434244;" points="446.232,371.692 446.232,406.395 443.759,407.888 443.759,373.085 
											"/>
					<polygon id="XMLID_163_" style="fill:#BBBCBF;" points="377.275,380.903 377.275,415.706 375.241,414.108 375.241,379.614 
											"/>
					<polygon id="XMLID_162_" style="fill:#E6E6E7;" points="379.748,379.509 379.748,414.212 377.275,415.706 377.275,380.903 
											"/>
					<polygon id="XMLID_161_" style="fill:#BBBCBF;" points="403.652,394.596 403.652,429.399 401.618,427.801 401.618,393.307 
											"/>
					<polygon id="XMLID_160_" style="fill:#CC883D;" points="403.652,394.596 448.854,368.957 418.427,351.35 373.379,377.503 					
						"/>
					<polygon id="XMLID_159_" style="fill:#E6E6E7;" points="406.125,393.202 406.125,427.905 403.652,429.399 403.652,394.596 
											"/>
					<polygon id="XMLID_158_" style="fill:#783A0B;" points="448.854,368.957 448.854,372.123 403.652,397.608 403.652,394.596 
											"/>
					<polygon id="XMLID_157_" style="fill:#96531E;" points="403.652,397.608 373.379,380.464 373.379,377.503 403.652,394.596 
											"/>
					<polygon id="XMLID_156_" style="fill:#783A0B;" points="379.748,384.07 379.748,391.405 401.618,403.922 401.618,396.456 					
						"/>
					<polygon id="XMLID_155_" style="fill:#96531E;" points="406.125,403.424 441.793,382.701 441.735,376.104 406.125,396.213 
											"/>
				</g>
				<g id="XMLID_147_">
					<path id="XMLID_364_" style="fill:#D89E77;" d="M423.556,419.353c0,0-1.573,0.55-2.349,0.735
						c-0.776,0.185-0.883,0.934,1.044,1.362c1.927,0.428,4.818-0.027,5.059-0.214c0.241-0.187-0.102-0.883-0.252-2.302
						C426.908,417.515,423.556,419.353,423.556,419.353z"/>
					<path id="XMLID_363_" style="fill:#231A00;" d="M422.249,419.787c0,0-1.738,0.206-2.782,0.225s-1.706,0.844-0.853,1.616
						c0.853,0.772,3.342,1.575,5.069,1.736c1.727,0.161,3.413,0.08,4.015-0.442c0.602-0.522-0.305-3.135-0.305-3.135
						s-0.94,1.208-2.667,1.248C423,421.075,421.377,420.466,422.249,419.787z"/>
					<path id="XMLID_359_" style="fill:#D89E77;" d="M427.766,396.137c0,0,0.509,6.351,0,14.582
						c-0.389,6.295-0.805,9.069-0.805,9.069l-2.796-0.596l-1.944-20.721L427.766,396.137z"/>
					<path id="XMLID_361_" style="fill:#FFCCA5;" d="M416.628,397.418l3.713,24.207l2.66,0.232c0,0,0.653-14.532-2.264-22.191
						L416.628,397.418z"/>
					<path id="XMLID_360_" style="fill:#FFCCA5;" d="M419.501,421.122c0,0-1.573,0.55-2.349,0.735
						c-0.776,0.185-0.883,0.934,1.044,1.362c1.927,0.428,4.818-0.027,5.059-0.214c0.241-0.187-0.102-0.883-0.252-2.302
						C422.853,419.284,419.501,421.122,419.501,421.122z"/>
					<path id="XMLID_362_" style="fill:#231A00;" d="M418.194,421.556c0,0-1.738,0.206-2.782,0.225
						c-1.044,0.019-1.706,0.844-0.853,1.616c0.853,0.772,3.342,1.575,5.069,1.736c1.727,0.161,3.413,0.08,4.015-0.442
						c0.602-0.522-0.305-3.135-0.305-3.135s-0.94,1.208-2.667,1.248C418.945,422.844,417.322,422.235,418.194,421.556z"/>
					<path id="XMLID_153_" style="fill:#E6E6E7;" d="M421.397,409.059l-3.613,17.904c-0.093,0.461,0.137,0.928,0.56,1.134l0,0
						c0.598,0.292,1.312-0.047,1.463-0.695l4.128-14.951l9.368,5.016l1.666,16.403c0.072,0.713,0.673,1.255,1.389,1.255l0,0
						c0.813,0,1.454-0.691,1.393-1.501l-1.128-14.971l13.76-7.907l5.348,16.124c0.212,0.64,0.886,1.004,1.537,0.83l0,0
						c0.711-0.19,1.115-0.941,0.879-1.638l-5.524-16.37l-0.241-3.162L421.397,409.059z"/>
					<path id="XMLID_152_" style="fill:#CC883D;" d="M437.896,415.388l17.113-10.463c0.842-0.514,0.804-1.749-0.067-2.212
						l-14.97-7.946c-1.108-0.588-2.44-0.568-3.53,0.053l-18.173,10.362c-0.872,0.497-0.853,1.76,0.033,2.231l15.239,8.106
						C434.913,416.249,436.57,416.199,437.896,415.388z"/>
					<path id="XMLID_167_" style="fill:#333B8C;" d="M448.746,394.462c0,0,3.26,9.577-5.46,13.703
						c-8.72,4.127-22.405-4.057-22.405-4.057l-2.58,3.304c0,0-3.504-1.471-4.133-2.679c-0.629-1.207,0.448-7.108,2.46-9.268
						c2.012-2.16,17.251-2.044,17.251-2.044L448.746,394.462z"/>
					<path id="XMLID_357_" style="fill:#717DFF;" d="M431.981,385.984l2.361,9.249c0,0-0.098,1.904,5.684,2.128
						c9.198,0.356,8.716-3.562,8.716-3.562s-0.32-5.962-2.353-18.299c-0.785-4.763-5.58-6.457-5.58-6.457l-7.674,1.693l-4.26,2.684
						L431.981,385.984z"/>
					<path id="XMLID_356_" style="fill:#FFCCA5;" d="M430.273,363.764l0.03-4.731c0,0,1.459-3.605,4.606-3.497
						c3.147,0.108,4.902,2.579,4.902,2.579l-1.124,8.049l0.308,2.526l-5.141,1.577l-0.096-2.837
						C433.759,367.43,429.722,367.429,430.273,363.764z"/>
					<path id="XMLID_355_" style="fill:#FFFFFF;" d="M433.267,369.02c0,0,4.822-2.306,6.479-2.177l0.777,2.263l-7.39,1.631
						L433.267,369.02z"/>
					<path id="XMLID_354_" style="fill:#FFFFFF;" d="M428.875,373.421c0,0,4.263,0.714,4.26,7.794l-2.072,4.31l-4.202-4.392
						L428.875,373.421z"/>
					<path id="XMLID_352_" style="fill:#FFCCA5;" d="M431.062,385.341c0,0-3.318,8.897-6.934,9.117
						c-3.616,0.22-9.96-8.334-9.96-8.334l1.43-1.896l8.195,5.683l3.242-8.779L431.062,385.341z"/>
					<path id="XMLID_351_" style="fill:#FFCCA5;" d="M415.661,384.122c0,0-0.828-1.629-1.194-2.102
						c-0.366-0.473-0.61-0.718-1.011-0.998c-0.401-0.28-0.453,0.105-0.192,0.543c0.261,0.438,0.418,0.648,0.418,0.788
						c0,0-1.203-1.033-1.691-1.261c-0.488-0.228-1.394-0.42-1.516-0.298c-0.122,0.123-0.035,0.438,0.418,0.56
						c0.453,0.123,0.802,0.491,0.802,0.491s-0.628-0.315-1.133-0.333c-0.505-0.017-0.924,0.052-1.011,0.193
						s-0.035,0.385,0.349,0.403c0.383,0.018,0.575,0.105,0.575,0.105s-0.889-0.017-1.046,0.298
						c-0.157,0.315,0.105,0.403,0.488,0.403c0.384,0,0.924,0.193,0.924,0.193l0.279,0.21c0,0-0.959-0.21-1.307-0.053
						c-0.349,0.158-0.244,0.333,0.104,0.473c0.349,0.14,0.68,0.228,0.959,0.385c0.279,0.158,1.15,0.928,1.83,1.419
						c0.68,0.49,1.603,0.823,1.603,0.823L415.661,384.122z"/>
					<path id="XMLID_151_" style="fill:#783A0B;" d="M433.479,393.475c-0.376,2.517-0.049,9.884,0.051,10.18
						s1.686,1.079,1.686,1.079l20.402-11.37l0.484-1.979c0,0,0.838-7.215-0.047-9.389c-0.215-0.529-1.018-1.591-1.587-1.641
						c-5.746-0.512-16.791,6.492-20.208,11.14C433.944,391.923,433.557,392.949,433.479,393.475z"/>
					<g id="XMLID_149_">
						<path id="XMLID_150_" style="fill:#FFFFFF;" d="M442.721,413.228c-0.422,0-0.772-0.334-0.789-0.759
							c-0.126-3.123-0.71-18.792,0.06-20.639c0.77-1.846,5.06-4.294,6.884-4.49c0.788-0.086,1.176,0.219,1.364,0.486
							c0.845,1.211,0.949,13.005,0.935,19.928c-0.001,0.436-0.355,0.789-0.791,0.789h-0.002c-0.437-0.001-0.79-0.355-0.789-0.792
							c0.013-6.895-0.168-16.925-0.611-18.842c-1.182,0.142-5.007,2.272-5.531,3.529c-0.436,1.099-0.295,11.108,0.06,19.967
							c0.018,0.436-0.322,0.805-0.758,0.822C442.742,413.228,442.732,413.228,442.721,413.228z"/>
					</g>
					<path id="XMLID_192_" style="fill:#231A00;" d="M430.444,358.733c0,0,0.722,1.455,1.847,1.767c0,0,0.437,1.875,0.843,2.063
						c0,0,0.219-1.438,1.282-1.625s1.139,2.563,0.601,3.375s-1.413,0.875-1.413,0.875s0.75,1,2.5,1.313s2.585-0.335,2.585-0.335
						s1.915-4.102,2.103-6.54s-1.111-4.563-3.962-4.75C433.979,354.687,429.471,355.716,430.444,358.733z"/>
					<path id="XMLID_194_" style="fill:#231A00;" d="M438.81,356.687c0,0-0.582-1.875,1.418-2.25s4.188,1.75,4.125,5.75
						s-0.556,5.688,1.878,5.563c0,0-1.128,1.489-2.941,1.088s-3.527-1.838-2.482-5.588C441.854,357.5,438.81,356.687,438.81,356.687
						z"/>
				</g>
				<path id="XMLID_393_" style="fill:#FFFFFF;" d="M412.348,372.871l5.375,3.124c0,0,3.208-2.167,4.833-2.167
					c0,0,1.542-2.183,3.375-2.946l-5.582-3.512c0,0-2.043,0.458-2.502,2.167C417.848,369.536,413.932,368.973,412.348,372.871z"/>
				<polygon id="XMLID_392_" style="fill:#FFFFFF;" points="409.473,373.786 415.265,377.245 411.515,379.638 405.39,375.995 				
					"/>
				<polygon id="XMLID_379_" style="fill:#6B4E2F;" points="408.432,370.766 409.838,371.422 415.265,368.422 415.265,367.641 
					413.807,367.203 408.432,370.172 				"/>
			</g>
		</g>
		<g id="XMLID_234_">
			<g id="XMLID_286_">
				<path id="XMLID_426_" style="fill:#BCB2A2;" d="M465.45,294.17l-25.91,15.04c-1.29-0.96-2.45-1.71-3.96-1.71
					c-4.91,0.01-7.25,4.33-18.77,3.02s-31.48-17.51-31.48-17.51c-15.12-10.6,61.98-31.63,61.98-31.63L465.45,294.17z"/>
				<path id="XMLID_424_" style="fill:#AFA58E;" d="M471.45,305.01c0,0-1.62,4.32-15.67,7.42c-9.75,2.15-13.32-1.05-16.24-3.22
					l25.91-15.04L471.45,305.01z"/>
			</g>
			<g id="XMLID_169_">
				<polygon id="XMLID_182_" style="fill:#272525;" points="457.937,250.392 457.937,285.195 455.904,283.597 455.904,249.103 				
					"/>
				<polygon id="XMLID_181_" style="fill:#434244;" points="460.41,248.999 460.41,283.701 457.937,285.195 457.937,250.392 				"/>
				<polygon id="XMLID_180_" style="fill:#BBBCBF;" points="391.453,258.21 391.453,293.013 389.42,291.415 389.42,256.921 				"/>
				<polygon id="XMLID_179_" style="fill:#E6E6E7;" points="393.926,256.816 393.926,291.519 391.453,293.013 391.453,258.21 				
					"/>
				<polygon id="XMLID_178_" style="fill:#BBBCBF;" points="417.83,271.903 417.83,306.706 415.797,305.107 415.797,270.613 				"/>
				<polygon id="XMLID_175_" style="fill:#CC883D;" points="417.83,271.903 463.033,246.264 432.606,228.656 387.557,254.81 				"/>
				<polygon id="XMLID_174_" style="fill:#E6E6E7;" points="420.303,270.509 420.303,305.212 417.83,306.706 417.83,271.903 				"/>
				<polygon id="XMLID_173_" style="fill:#783A0B;" points="463.033,246.264 463.033,249.43 417.83,274.914 417.83,271.903 				"/>
				<polygon id="XMLID_172_" style="fill:#96531E;" points="417.83,274.914 387.557,257.77 387.557,254.81 417.83,271.903 				"/>
				<polygon id="XMLID_171_" style="fill:#783A0B;" points="393.926,261.377 393.926,268.711 415.797,281.228 415.797,273.763 				
					"/>
				<polygon id="XMLID_170_" style="fill:#96531E;" points="420.303,280.731 455.972,260.008 455.913,253.411 420.303,273.52 				
					"/>
			</g>
			<g id="XMLID_2_">
				<path id="XMLID_168_" style="fill:#D89E77;" d="M437.734,296.659c0,0-1.573,0.55-2.349,0.735
					c-0.776,0.185-0.883,0.934,1.044,1.363c1.927,0.428,4.818-0.027,5.059-0.214c0.241-0.187-0.102-0.883-0.252-2.302
					C441.087,294.822,437.734,296.659,437.734,296.659z"/>
				<path id="XMLID_166_" style="fill:#231A00;" d="M436.427,297.094c0,0-1.738,0.206-2.782,0.225
					c-1.044,0.019-1.706,0.844-0.853,1.616c0.853,0.772,3.342,1.575,5.069,1.736c1.727,0.161,3.413,0.08,4.015-0.442
					c0.602-0.522-0.305-3.135-0.305-3.135s-0.94,1.208-2.667,1.248C437.179,298.382,435.555,297.773,436.427,297.094z"/>
				<path id="XMLID_44_" style="fill:#D89E77;" d="M441.945,273.443c0,0,0.509,6.351,0,14.582c-0.389,6.295-0.805,9.069-0.805,9.069
					l-2.796-0.596l-1.944-20.721L441.945,273.443z"/>
				<path id="XMLID_38_" style="fill:#FFCCA5;" d="M430.807,274.724l3.713,24.207l2.66,0.232c0,0,0.653-14.532-2.264-22.191
					L430.807,274.724z"/>
				<path id="XMLID_37_" style="fill:#FFCCA5;" d="M433.679,298.429c0,0-1.573,0.55-2.349,0.735
					c-0.776,0.185-0.883,0.934,1.044,1.363c1.927,0.428,4.818-0.027,5.059-0.214c0.241-0.187-0.102-0.883-0.252-2.302
					C437.032,296.591,433.679,298.429,433.679,298.429z"/>
				<path id="XMLID_35_" style="fill:#231A00;" d="M432.372,298.863c0,0-1.738,0.206-2.782,0.225
					c-1.044,0.019-1.706,0.844-0.853,1.616c0.853,0.772,3.342,1.575,5.069,1.736c1.727,0.161,3.413,0.08,4.015-0.442
					c0.602-0.522-0.305-3.135-0.305-3.135s-0.94,1.208-2.667,1.248C433.123,300.151,431.5,299.542,432.372,298.863z"/>
				<path id="XMLID_34_" style="fill:#E6E6E7;" d="M435.576,286.366l-3.613,17.904c-0.093,0.461,0.137,0.928,0.56,1.134l0,0
					c0.598,0.292,1.312-0.047,1.463-0.695l4.128-14.951l9.368,5.016l1.666,16.403c0.072,0.713,0.673,1.255,1.389,1.255l0,0
					c0.813,0,1.454-0.691,1.392-1.501l-1.128-14.971l13.76-7.907l5.348,16.124c0.212,0.64,0.886,1.003,1.537,0.83l0,0
					c0.711-0.19,1.115-0.941,0.879-1.638L466.801,287l-0.241-3.162L435.576,286.366z"/>
				<path id="XMLID_33_" style="fill:#CC883D;" d="M452.075,292.694l17.113-10.463c0.841-0.514,0.804-1.749-0.067-2.211
					l-14.97-7.946c-1.108-0.588-2.44-0.568-3.53,0.053l-18.173,10.362c-0.872,0.497-0.853,1.76,0.033,2.231l15.239,8.106
					C449.092,293.555,450.748,293.506,452.075,292.694z"/>
				<path id="XMLID_19_" style="fill:#333B8C;" d="M462.924,271.769c0,0,3.26,9.577-5.46,13.703
					c-8.72,4.127-22.405-4.057-22.405-4.057l-2.58,3.304c0,0-3.504-1.471-4.133-2.679c-0.629-1.207,0.448-7.108,2.46-9.268
					c2.012-2.16,17.251-2.044,17.251-2.044L462.924,271.769z"/>
				<path id="XMLID_18_" style="fill:#717DFF;" d="M446.16,263.291l2.361,9.249c0,0-0.098,1.904,5.684,2.128
					c9.198,0.356,8.716-3.563,8.716-3.563s-2.336-6.251-1.893-18.746c0.135-3.806-4.7-6.305-4.7-6.305l-9.015,1.989l-4.26,2.684
					L446.16,263.291z"/>
				<path id="XMLID_17_" style="fill:#FFCCA5;" d="M444.451,241.071l0.03-4.731c0,0,1.459-3.605,4.606-3.497
					s4.902,2.579,4.902,2.579l-1.124,8.049l0.308,2.526l-5.141,1.577l-0.096-2.837C447.938,244.737,443.901,244.736,444.451,241.071
					z"/>
				<path id="XMLID_16_" style="fill:#FFFFFF;" d="M447.446,246.327c0,0,4.822-2.306,6.479-2.177l0.777,2.263l-7.39,1.631
					L447.446,246.327z"/>
				<path id="XMLID_15_" style="fill:#FFFFFF;" d="M443.053,250.727c0,0,4.263,0.714,4.26,7.795l-2.072,4.309l-4.202-4.392
					L443.053,250.727z"/>
				<path id="XMLID_14_" style="fill:#FFCCA5;" d="M445.24,262.648c0,0-3.318,8.897-6.934,9.117c-3.616,0.22-9.96-8.334-9.96-8.334
					l1.43-1.896l8.195,5.683l3.242-8.779L445.24,262.648z"/>
				<path id="XMLID_13_" style="fill:#FFCCA5;" d="M429.839,261.429c0,0-0.828-1.629-1.194-2.102
					c-0.366-0.473-0.61-0.718-1.011-0.999c-0.401-0.28-0.453,0.105-0.192,0.543c0.261,0.438,0.418,0.648,0.418,0.788
					c0,0-1.203-1.033-1.691-1.261c-0.488-0.228-1.394-0.42-1.516-0.298c-0.122,0.122-0.035,0.438,0.418,0.56
					c0.453,0.123,0.802,0.491,0.802,0.491s-0.628-0.315-1.133-0.333c-0.505-0.018-0.924,0.053-1.011,0.193
					c-0.087,0.14-0.035,0.385,0.349,0.403c0.384,0.018,0.575,0.105,0.575,0.105s-0.889-0.017-1.046,0.298
					c-0.157,0.315,0.105,0.403,0.488,0.403c0.383,0,0.924,0.193,0.924,0.193l0.279,0.21c0,0-0.959-0.21-1.307-0.053
					c-0.349,0.158-0.244,0.333,0.105,0.473c0.349,0.14,0.68,0.228,0.959,0.385c0.279,0.158,1.15,0.928,1.83,1.419
					c0.68,0.49,1.604,0.823,1.604,0.823L429.839,261.429z"/>
				<path id="XMLID_12_" style="fill:#231A00;" d="M451.676,231.745c0,0,2.528,0.402,3.85,3.448
					c1.322,3.046,0.287,7.815,1.379,9.309c1.092,1.494,4.769,7.7-1.551,8.734c-6.321,1.034-7.592-4.93-7.416-8.498
					c0.176-3.568-0.046-5.005-0.625-6.039c-0.578-1.034-0.923,0.604-0.866,1.509c0,0-0.083,0.682-0.718-0.345
					c-0.603-0.977-0.711-2.93-0.115-3.893c0,0-0.747,0.807-2.126,0.454c-1.379-0.353-0.69-4.318,2.629-4.231
					C446.117,232.191,449.047,230.697,451.676,231.745z"/>
				<path id="XMLID_11_" style="fill:#783A0B;" d="M447.657,270.782c-0.376,2.517-0.049,9.884,0.051,10.18
					c0.1,0.296,1.686,1.079,1.686,1.079l20.402-11.37l0.484-1.979c0,0,0.838-7.215-0.047-9.389
					c-0.215-0.529-1.018-1.591-1.587-1.641c-5.746-0.512-16.791,6.492-20.208,11.14C448.122,269.23,447.735,270.256,447.657,270.782
					z"/>
				<g id="XMLID_10_">
					<path id="XMLID_21_" style="fill:#FFFFFF;" d="M456.9,290.534c-0.422,0-0.773-0.333-0.79-0.759
						c-0.125-3.122-0.71-18.792,0.06-20.639c0.77-1.846,5.06-4.294,6.884-4.49c0.788-0.086,1.176,0.219,1.364,0.487
						c0.846,1.211,0.949,13.005,0.935,19.928c-0.001,0.436-0.355,0.789-0.791,0.789c0,0-0.001,0-0.001,0
						c-0.437-0.001-0.79-0.355-0.789-0.792c0.013-6.895-0.168-16.925-0.611-18.842c-1.182,0.142-5.007,2.272-5.531,3.529
						c-0.436,1.099-0.295,11.108,0.06,19.967c0.018,0.436-0.322,0.805-0.758,0.822C456.921,290.534,456.91,290.534,456.9,290.534z"
						/>
				</g>
			</g>
			<path id="XMLID_377_" style="fill:#FFFFFF;" d="M428.792,248.043l5.375,3.124c0,0,3.208-2.167,4.833-2.167
				c0,0,1.542-2.184,3.375-2.946l-5.582-3.512c0,0-2.043,0.458-2.502,2.167C434.292,244.708,430.375,244.144,428.792,248.043z"/>
			<polygon id="XMLID_376_" style="fill:#FFFFFF;" points="425.917,248.958 431.708,252.417 427.958,254.81 421.833,251.167 			"/>
			<polygon id="XMLID_378_" style="fill:#6B4E2F;" points="424.875,245.938 426.281,246.594 431.708,243.594 431.708,242.813 
				430.25,242.375 424.875,245.344 			"/>
		</g>
		<g id="XMLID_32_">
			<g id="XMLID_400_">
				<path id="XMLID_413_" style="fill:#BCB2A2;" d="M372.524,357.31l-25.91,15.04c-1.29-0.96-2.45-1.71-3.96-1.71
					c-4.91,0.01-7.25,4.33-18.77,3.02c-11.52-1.31-31.48-17.51-31.48-17.51c-15.12-10.6,61.98-31.63,61.98-31.63L372.524,357.31z"/>
				<path id="XMLID_401_" style="fill:#AFA58E;" d="M378.524,368.15c0,0-1.62,4.32-15.67,7.42c-9.75,2.15-13.32-1.05-16.24-3.22
					l25.91-15.04L378.524,368.15z"/>
			</g>
			<path id="XMLID_113_" style="fill:#231A00;" d="M336.613,361.809c0,0-2,0.875-5.188,0.875s-1.389,2.875,3.056,3.688
				c4.444,0.813,4.569,0.813,5.882,0.5s1.625-4.438,1.625-4.438L336.613,361.809z"/>
			<path id="XMLID_112_" style="fill:#333B8C;" d="M333.854,341.96l2.473,20.604c0,0,1.042,3.276,5.042,0.971
				s0.833-18.471,0.833-18.471l-6.79-6.767C335.413,338.297,333.546,339.391,333.854,341.96z"/>
			<path id="XMLID_29_" style="fill:#E6E6E7;" d="M343.24,349.594l-3.613,17.904c-0.093,0.461,0.137,0.928,0.56,1.134l0,0
				c0.598,0.292,1.312-0.047,1.463-0.695l4.128-14.951l9.368,5.016l1.666,16.403c0.072,0.713,0.673,1.255,1.389,1.255l0,0
				c0.813,0,1.454-0.691,1.393-1.501l-1.128-14.971l13.76-7.907l5.348,16.124c0.212,0.64,0.886,1.004,1.537,0.83l0,0
				c0.711-0.19,1.115-0.941,0.879-1.638l-5.524-16.37l-0.241-3.162L343.24,349.594z"/>
			<path id="XMLID_25_" style="fill:#CC883D;" d="M359.739,355.922l17.113-10.463c0.841-0.514,0.804-1.749-0.067-2.212l-14.97-7.946
				c-1.108-0.588-2.44-0.568-3.53,0.053l-18.173,10.362c-0.872,0.497-0.853,1.76,0.033,2.231l15.239,8.106
				C356.756,356.783,358.412,356.733,359.739,355.922z"/>
			<g id="XMLID_36_">
				<polygon id="XMLID_6_" style="fill:#272525;" points="362.453,308.898 362.453,343.701 360.419,342.103 360.419,307.609 				"/>
				<polygon id="XMLID_5_" style="fill:#434244;" points="364.926,307.505 364.926,342.207 362.453,343.701 362.453,308.898 				"/>
				<polygon id="XMLID_3_" style="fill:#BBBCBF;" points="295.969,316.716 295.969,351.519 293.936,349.921 293.936,315.427 				"/>
				<polygon id="XMLID_4_" style="fill:#E6E6E7;" points="298.442,315.322 298.442,350.025 295.969,351.519 295.969,316.716 				"/>
				<polygon id="XMLID_43_" style="fill:#BBBCBF;" points="322.346,330.409 322.346,365.212 320.313,363.614 320.313,329.12 				"/>
				<polygon id="XMLID_42_" style="fill:#CC883D;" points="322.346,330.409 367.549,304.77 337.122,287.163 292.073,313.316 				"/>
				<polygon id="XMLID_41_" style="fill:#E6E6E7;" points="324.819,329.015 324.819,363.718 322.346,365.212 322.346,330.409 				
					"/>
				<polygon id="XMLID_40_" style="fill:#783A0B;" points="367.549,304.77 367.549,307.936 322.346,333.421 322.346,330.409 				"/>
				<polygon id="XMLID_39_" style="fill:#96531E;" points="322.346,333.421 292.073,316.277 292.073,313.316 322.346,330.409 				
					"/>
				<polygon id="XMLID_8_" style="fill:#783A0B;" points="298.442,319.883 298.442,327.218 320.313,339.735 320.313,332.269 				"/>
				<polygon id="XMLID_9_" style="fill:#96531E;" points="324.819,339.237 360.487,318.514 360.429,311.917 324.819,332.026 				"/>
			</g>
			<path id="XMLID_146_" style="fill:#FFFFFF;" d="M332.145,311.299l7.583,4.539l6.505-3.883l4.544-3.061l-7.716-4.561
				c0,0-1.75,0.866-3.667,2.891C339.395,307.224,333.479,308.432,332.145,311.299z"/>
			<g id="XMLID_111_">
				<polygon id="XMLID_148_" style="fill:#2E1200;" points="343.438,311.34 343.438,311.947 343.982,311.711 346.466,305.932 
					345.882,305.587 				"/>
				<path id="XMLID_133_" style="fill:#FFCCA5;" d="M347.509,307.965c0,0,5.104,1.612,10.104,1.728c5,0.116,6.125,2.241,6.125,2.428
					s-6.375,2.125-6.375,2.125l-10.349-3.35L347.509,307.965z"/>
				<path id="XMLID_129_" style="fill:#FFCCA5;" d="M347.509,326.187c-0.131,0.372-8.667,1.621-11.5,0.746
					c-2.833-0.875-7.661-11.203-7.661-11.203l1.911-2.135l8.347,8.395l4.991-1.573L347.509,326.187z"/>
				<path id="XMLID_230_" style="fill:#FFCCA5;" d="M350.686,304.119l-0.387-5.449c0,0,1.358-4.28,4.99-4.436
					c3.632-0.156,5.873,2.532,5.873,2.532l-0.576,9.365l0.579,2.88l-5.776,2.273l-0.363-3.257
					C355.026,308.028,350.379,308.386,350.686,304.119z"/>
				<path id="XMLID_228_" style="fill:#FFFFFF;" d="M354.125,309.758c0,0,5.619-3.242,7.636-3.242l1.152,2.665l-8.788,2.665V309.758
					z"/>
				<path id="XMLID_227_" style="fill:#202866;" d="M346.29,335.535c0,0,1.009-1.973,2.815-2.874
					c1.806-0.902,9.471,2.674,11.5,3.282c2.029,0.607,0,5.172,0,5.172l-7.214,0.845l-7.608-3.889L346.29,335.535z"/>
				<path id="XMLID_226_" style="fill:#333B8C;" d="M373.286,339.875c0,0,0.3,6.914-3.908,9.168
					c-4.208,2.254-7.515,3.757-11.497,3.757c-3.983,0-21.124-8.69-21.124-8.69s-4.049-2.882-1.344-5.813
					c2.705-2.931,7.364-2.601,8.416-1.789c1.052,0.812,11.743,5.02,11.743,5.02v-1.202l17.714-2.029V339.875z"/>
				<path id="XMLID_225_" style="fill:#717DFF;" d="M354.125,311.847l-4.018,2.989l4.618,27.121c0,0,5.838,2.474,11.889,0.421
					c5.921-2.009,6.673-3.879,6.673-3.879s-4.646-24.816-5.078-26.04c-0.432-1.225-2.161-3.314-5.294-3.277L354.125,311.847z"/>
				<path id="XMLID_223_" style="fill:#231A00;" d="M350.569,298.622c0,0,1.076,1.417,2.537,1.65c0,0-0.189,2.085,0.697,3.033
					c0,0,0.244-1.318,1.007-1.42c0.763-0.102,1.307,2.123,0.995,3.157c-0.312,1.034-0.897,1.316-0.897,1.316
					s3.354,1.849,5.679-0.226c0,0,0.906-5.106,1.089-7.286c0.183-2.18-0.859-2.438-0.859-2.438s-0.496-1.945-3.423-2.701
					c-2.927-0.755-5.315,0.89-6.331,0.826l0.185,0.573c0,0-0.979,0.455-1.609,0.403
					C349.637,295.509,349.345,297.842,350.569,298.622z"/>
				<path id="XMLID_128_" style="fill:#FFFFFF;" d="M350.107,314.836l-6.714,4.972l2.39,7.125c0,0,7.111-1.5,8.377-3.125
					S355.27,315.365,350.107,314.836z"/>
				<path id="XMLID_131_" style="fill:#FFCCA5;" d="M330.145,313.277c0,0-1.375-2.232-1.75-2.6
					c-0.375-0.368-0.781-1.025-1.469-1.275s-1.469,0.375-1.594,0.563s0.078,0.313,0.313,0.281c0.234-0.031,0.766-0.219,0.766-0.219
					l0.406,0.547c0,0-1.25-0.297-1.625-0.234s-0.297,0.641-0.297,0.641s-0.344,0.083-0.406,0.33
					c-0.063,0.248,0.094,0.498,0.094,0.498s-0.328,0.172-0.344,0.375c-0.016,0.203,0.125,0.563,0.203,0.813s0.297,0.375,0.484,0.406
					c0.188,0.031,0.344-0.203,0.063-0.422l-0.063-0.25l0.484,0.063c0,0,0.216,0.95,1.141,1.766c0.925,0.815,1.797,1.172,1.797,1.172
					l2.514-1.529L330.145,313.277z"/>
				<path id="XMLID_130_" style="fill:#FFCCA5;" d="M347.922,308.808c0,0-0.188-0.951-0.476-1.289
					c-0.493-0.579-1.102-0.722-1.592-0.446c-0.086,0.048-0.356,0.017-0.975-0.272c-0.62-0.289-1.484-0.26-1.304,0.666
					c0,0-0.496,0.057-0.374,0.752c0,0-0.233,0.677-0.192,0.909c0.041,0.232-0.225,0.408-0.047,0.796
					c0.178,0.388,0.688,0.844,1.035,1.07c0.347,0.226,1.155,0.249,1.434,0.109c0.279-0.14,0.203-0.297,0.203-0.297
					s0.57,0.394,0.997,0.325C347.056,311.063,348.18,309.718,347.922,308.808z"/>
			</g>
			<path id="XMLID_28_" style="fill:#783A0B;" d="M355.321,334.01c-0.376,2.517-0.049,9.884,0.051,10.18
				c0.1,0.296,1.686,1.079,1.686,1.079l20.402-11.37l0.484-1.979c0,0,0.838-7.215-0.047-9.389c-0.215-0.529-1.018-1.591-1.587-1.641
				c-5.746-0.512-16.791,6.493-20.208,11.14C355.787,332.458,355.4,333.483,355.321,334.01z"/>
			<g id="XMLID_30_">
				<path id="XMLID_31_" style="fill:#FFFFFF;" d="M364.564,353.762c-0.422,0-0.773-0.334-0.79-0.759
					c-0.125-3.123-0.71-18.792,0.06-20.639c0.77-1.846,5.06-4.294,6.884-4.49c0.788-0.086,1.176,0.219,1.364,0.486
					c0.845,1.211,0.949,13.005,0.935,19.928c-0.001,0.436-0.355,0.789-0.791,0.789c0,0-0.001,0-0.001,0
					c-0.437-0.001-0.79-0.355-0.789-0.792c0.013-6.895-0.168-16.925-0.611-18.842c-1.182,0.142-5.007,2.272-5.532,3.529
					c-0.436,1.099-0.295,11.108,0.06,19.967c0.018,0.436-0.322,0.805-0.758,0.822C364.585,353.762,364.574,353.762,364.564,353.762z
					"/>
			</g>
			<g id="XMLID_122_">
				<path id="XMLID_121_" style="fill:#7F5E40;" d="M354.285,355.374c0,0,0.2-1.146,2.445-1.018
					c2.244,0.128,1.391,3.757,2.287,8.324c0.896,4.568,3.714,6.019,3.33,8.623c-0.384,2.604-4.64,4.397-8.061,0.683l0.676-0.726
					c0,0,3.5,2.348,4.738,0.768s-1.793-4.571-2.348-8.113c-0.555-3.541-0.512-5.292-2.092-5.334
					C353.681,358.539,354.285,355.374,354.285,355.374z"/>
				<path id="XMLID_123_" style="fill:#7F5E40;" d="M349.732,352.528c0,0,0.201-1.146,2.445-1.018
					c2.244,0.128,1.391,3.757,2.287,8.324c0.897,4.568,3.714,6.019,3.33,8.623c-0.384,2.604-4.64,4.397-8.062,0.683l0.676-0.726
					c0,0,3.501,2.348,4.739,0.768s-1.793-4.571-2.348-8.113c-0.555-3.541-0.512-5.291-2.092-5.334
					C349.128,355.694,349.732,352.528,349.732,352.528z"/>
				<path id="XMLID_110_" style="fill:#7F5E40;" d="M342.326,356.847c0,0-4.098,8.907-5.208,11.725
					c-1.11,2.818-1.793,6.318,4.696,9.392c6.489,3.074,11.355,1.195,13.405-1.366c2.049-2.561,0.92-10.587,0.759-13.831
					c-0.161-3.244,2.229-3.983-0.759-5.919C352.23,354.911,344.46,354.855,342.326,356.847z"/>
				<path id="XMLID_104_" style="fill:#39281C;" d="M344.766,350.867c-0.689-0.025-1.324,0.365-1.621,0.987
					c-0.762,1.597-2.208,4.717-2.271,5.532c-0.085,1.11,7.516,5.569,9.206,4.876s2.747-3.425,5.394-4.449
					C357.958,356.852,350.744,351.083,344.766,350.867z"/>
				<path id="XMLID_114_" style="fill:#39281C;" d="M337.419,365.198c0.41-0.482,1.079-0.644,1.655-0.381
					c2.09,0.952,7.827,3.641,8.801,4.894c1.195,1.537,0.395,5.464-1.311,6.375c-1.706,0.911-8.893-1.708-10.166-3.472
					C335.312,371.107,335.857,367.033,337.419,365.198z"/>
				<path id="XMLID_115_" style="fill:#563E2E;" d="M336.398,365.043c0,0-0.59,3.415,2.882,4.952s8.487,0.455,9.11,0
					c0.623-0.455-8.996-5.464-10.078-5.635C337.231,364.189,336.425,364.146,336.398,365.043z"/>
				<path id="XMLID_116_" style="fill:#948478;" d="M347.002,360.887c0,0-0.492,0.996-0.122,1.565
					c0.37,0.569,1.452,0.825,1.764,0.512c0.313-0.313,0.541-1.224,0.541-1.224L347.002,360.887z"/>
				<path id="XMLID_117_" style="fill:#948478;" d="M341.614,357.785c0,0-0.691,1.094-0.417,1.529s0.929,0.919,1.327,0.606
					c0.398-0.313,0.598-1.017,0.598-1.017L341.614,357.785z"/>
				<path id="XMLID_119_" style="fill:#39281C;" d="M347.278,361.994c0,0-0.512,0.687-0.882,3.163l0.882,0.683l0.825-3.159
					L347.278,361.994z"/>
				<path id="XMLID_120_" style="fill:#39281C;" d="M342.128,359.635l-1.254,2.22l-0.995-0.797c0,0,1.338-1.736,1.651-1.964
					L342.128,359.635z"/>
				<path id="XMLID_118_" style="fill:#563E2E;" d="M351.769,370.482l4.961-0.385c0,0,0.409,3.044-0.488,5.456
					c-0.896,2.411-3.287,2.017-3.97,0.72C351.589,374.975,351.769,370.482,351.769,370.482z"/>
			</g>
			<g id="XMLID_127_">
				<polygon id="XMLID_124_" style="fill:#948478;" points="325.188,294.331 333.338,299.038 340.667,294.331 332.525,289.628 				
					"/>
				<polygon id="XMLID_125_" style="fill:#564C44;" points="325.188,294.331 325.188,296.391 333.314,301.134 333.314,299.038 				
					"/>
				<polygon id="XMLID_126_" style="fill:#BDB39B;" points="340.667,294.331 333.314,299.038 333.314,301.134 340.667,296.17 				
					"/>
			</g>
		</g>
		<g id="XMLID_144_">
			<g id="XMLID_220_">
				<path id="XMLID_473_" style="fill:#BCB2A2;" d="M552.86,353.97l-0.01,0.01l-17.87-32.31l-50.56,33.51l27.64,15.14
					c5.2-0.78,7.4-3,10.92-3.01c1.51,0,2.67,0.75,3.96,1.71l0.01-0.01c2.92,2.17,6.49,5.37,16.24,3.22
					c14.05-3.1,15.67-7.42,15.67-7.42L552.86,353.97z M472.73,352.82c0,0,1.64,1.33,4.25,3.26c0.79,0.58,1.67,1.22,2.62,1.89
					l4.82-2.79l-13.16-7.21C470.32,349.73,470.67,351.37,472.73,352.82z"/>
				<path id="XMLID_447_" style="fill:#AFA58E;" d="M534.98,321.67l-50.56,33.51l-13.16-7.21c5.97-11.1,63.45-26.78,63.45-26.78
					L534.98,321.67z"/>
				<g id="XMLID_61_">
					<path id="XMLID_52_" style="fill:#231A00;" d="M515.525,358.368c0,0-2,0.875-5.188,0.875c-3.188,0-1.389,2.875,3.056,3.688
						c4.444,0.813,4.569,0.813,5.882,0.5c1.312-0.313,1.625-4.438,1.625-4.438L515.525,358.368z"/>
					<path id="XMLID_209_" style="fill:#333B8C;" d="M512.766,338.599l2.473,20.604c0,0,1.042,3.276,5.042,0.971
						c4-2.305,0.833-18.471,0.833-18.471l-6.79-6.768C514.324,334.935,512.457,336.03,512.766,338.599z"/>
					<path id="XMLID_208_" style="fill:#E6E6E7;" d="M522.151,346.232l-3.613,17.904c-0.093,0.461,0.137,0.928,0.56,1.134l0,0
						c0.598,0.292,1.312-0.047,1.463-0.695l4.128-14.951l9.367,5.016l1.666,16.403c0.072,0.713,0.673,1.255,1.389,1.255l0,0
						c0.813,0,1.453-0.691,1.393-1.501l-1.128-14.971l13.76-7.907l5.348,16.124c0.212,0.64,0.886,1.004,1.537,0.83l0,0
						c0.711-0.19,1.114-0.941,0.879-1.638l-5.524-16.37l-0.241-3.162L522.151,346.232z"/>
					<path id="XMLID_207_" style="fill:#CC883D;" d="M538.65,352.561l17.113-10.463c0.841-0.514,0.804-1.749-0.067-2.212
						l-14.97-7.946c-1.108-0.588-2.44-0.568-3.53,0.053l-18.173,10.362c-0.872,0.497-0.853,1.76,0.033,2.231l15.239,8.106
						C535.667,353.422,537.324,353.372,538.65,352.561z"/>
					<g id="XMLID_195_">
						<polygon id="XMLID_206_" style="fill:#272525;" points="541.364,305.537 541.364,340.34 539.331,338.742 539.331,304.248 
													"/>
						<polygon id="XMLID_205_" style="fill:#434244;" points="543.838,304.143 543.838,338.846 541.364,340.34 541.364,305.537 
													"/>
						<polygon id="XMLID_204_" style="fill:#BBBCBF;" points="474.881,313.355 474.881,348.158 472.847,346.56 472.847,312.065 
													"/>
						<polygon id="XMLID_203_" style="fill:#E6E6E7;" points="477.354,311.961 477.354,346.664 474.881,348.158 474.881,313.355 
													"/>
						<polygon id="XMLID_202_" style="fill:#BBBCBF;" points="501.258,327.048 501.258,361.851 499.224,360.252 499.224,325.758 
													"/>
						<polygon id="XMLID_201_" style="fill:#CC883D;" points="501.258,327.048 546.46,301.409 516.033,283.802 470.985,309.955 
													"/>
						<polygon id="XMLID_200_" style="fill:#E6E6E7;" points="503.731,325.654 503.731,360.357 501.258,361.851 501.258,327.048 
													"/>
						<polygon id="XMLID_199_" style="fill:#783A0B;" points="546.46,301.409 546.46,304.575 501.258,330.06 501.258,327.048 						
							"/>
						<polygon id="XMLID_198_" style="fill:#96531E;" points="501.258,330.06 470.985,312.915 470.985,309.955 501.258,327.048 
													"/>
						<polygon id="XMLID_197_" style="fill:#783A0B;" points="477.354,316.522 477.354,323.857 499.224,336.374 499.224,328.908 
													"/>
						<polygon id="XMLID_196_" style="fill:#96531E;" points="503.731,335.876 539.399,315.152 539.341,308.556 503.731,328.665 
													"/>
					</g>
					<g id="XMLID_56_">
						<path id="XMLID_67_" style="fill:#A6A8AA;" d="M546.988,308.826c0,0-5.387-4.894-7.012-6.019s-2.637-1.399-2.637-1.399
							l0.249,4.016C537.589,305.425,545.53,309.45,546.988,308.826z"/>
						<path id="XMLID_58_" style="fill:#775F4F;" d="M521.811,315.734c0,0-4.105-0.323-6.167-2.01s4.181-6.625,8.528-8.875
							l1.972,1.563l-3.972,3.938L521.811,315.734z"/>
						<path id="XMLID_66_" style="fill:#775F4F;" d="M527.488,303.162l-1.564-5.234c0,0,0.393-4.473,3.904-5.417
							c3.511-0.943,6.283,1.192,6.283,1.192l1.477,9.266l1.193,2.685l-5.143,3.477l-1.064-3.099
							C532.575,306.032,528.117,307.393,527.488,303.162z"/>
						<path id="XMLID_65_" style="fill:#FFFFFF;" d="M532.072,307.916c0,0,4.778-4.387,6.746-4.827l2.167,2.986l-8.458,3.88
							L532.072,307.916z"/>
						<path id="XMLID_64_" style="fill:#202866;" d="M525.202,332.174c0,0,1.009-1.973,2.815-2.874
							c1.806-0.902,9.471,2.674,11.5,3.281c2.029,0.607,0,5.172,0,5.172l-7.214,0.845l-7.608-3.889L525.202,332.174z"/>
						<path id="XMLID_63_" style="fill:#333B8C;" d="M552.198,336.513c0,0,0.301,6.914-3.907,9.168
							c-4.208,2.254-7.515,3.757-11.497,3.757c-3.983,0-21.124-8.69-21.124-8.69s-4.049-2.882-1.344-5.813
							c2.705-2.931,7.364-2.601,8.416-1.789c1.052,0.812,11.743,5.02,11.743,5.02v-1.202l17.714-2.029V336.513z"/>
						<path id="XMLID_62_" style="fill:#717DFF;" d="M533.037,308.486c0,0-4.423,1.804-4.018,2.989
							c3.002,8.79,4.618,27.121,4.618,27.121s5.838,2.474,11.889,0.421c5.921-2.009,6.673-3.879,6.673-3.879
							s-4.646-24.815-5.078-26.04c-0.432-1.225-3.638-3.71-6.772-3.674L533.037,308.486z"/>
						<path id="XMLID_59_" style="fill:#FFFFFF;" d="M530.768,309.955l-8.597,0.394c0,0-2.215,3.563-1.028,6.625
							c0,0,9.375,2.313,9.625,2.313S533.456,312.874,530.768,309.955z"/>
						<path id="XMLID_60_" style="fill:#775F4F;" d="M524.171,304.849c0,0,0.986-1.87,1.417-2.154
							c0.431-0.284,0.819-0.19,0.819-0.19l0.112,0.219c0,0,0.458-0.125,0.646-0.125s0.375,0.333,0.375,0.333
							s0.229-0.042,0.458-0.021c0.229,0.021,0.333,0.354,0.333,0.354s0.313-0.021,0.438,0.063c0.125,0.083,0.198,0.146,0.443,0.521
							s-0.151,0.342-0.484,0.161c-0.333-0.181-0.542,0-0.542,0l-1,1.027c0,0,0.701-0.348,1.333-0.292
							c0.632,0.056-0.604,0.505-0.917,0.68c-0.313,0.174-0.875,0.883-1.458,1.112C525.56,306.766,524.171,304.849,524.171,304.849z"
							/>
					</g>
					<path id="XMLID_55_" style="fill:#783A0B;" d="M534.233,330.648c-0.376,2.517-0.049,9.884,0.051,10.18
						c0.1,0.296,1.685,1.079,1.685,1.079l20.402-11.37l0.484-1.979c0,0,0.838-7.215-0.047-9.389
						c-0.215-0.529-1.018-1.591-1.587-1.641c-5.746-0.512-16.791,6.492-20.208,11.14
						C534.698,329.097,534.311,330.122,534.233,330.648z"/>
					<g id="XMLID_53_">
						<path id="XMLID_54_" style="fill:#FFFFFF;" d="M543.475,350.401c-0.422,0-0.772-0.334-0.789-0.759
							c-0.126-3.123-0.711-18.792,0.06-20.639c0.77-1.846,5.06-4.294,6.884-4.49c0.788-0.086,1.176,0.219,1.364,0.486
							c0.846,1.211,0.949,13.005,0.935,19.928c-0.001,0.436-0.355,0.789-0.791,0.789c0,0-0.001,0-0.001,0
							c-0.437-0.001-0.79-0.355-0.789-0.792c0.013-6.895-0.168-16.925-0.611-18.842c-1.182,0.142-5.007,2.272-5.532,3.529
							c-0.436,1.099-0.294,11.108,0.06,19.967c0.018,0.436-0.322,0.805-0.758,0.822
							C543.497,350.401,543.486,350.401,543.475,350.401z"/>
					</g>
					<path id="XMLID_51_" style="fill:#231A00;" d="M526.407,297.849c0,0,0.123,0.028,0.324,0.07
						c0.578,0.12,1.797,0.358,2.556,0.389c0,0-0.144,1.87,1.023,2.393c0,0,0.167-1.185,0.958-1.185c0.792,0,1.21,1.917,1.084,2.583
						c-0.126,0.667-0.709,0.991-0.709,0.991s0.292,0.509,1.5,0.884c1.208,0.375,4.445-1.005,4.445-1.005l0.471-4.078
						c0,0,0.818-1.208,0.721-2.417c-0.096-1.208-0.721-1.5-0.721-1.5s0.185-1.458-0.72-2.5c-0.905-1.042-1.572-0.875-1.572-0.875
						s-0.667-1.167-2-1.375c-1.333-0.208-1.748,0.5-1.748,0.5s-0.877-0.743-2.002-0.538c-1.125,0.205-1.625,1.455-1.625,1.455
						s-1.431-0.032-1.987,0.63c-0.555,0.662-0.263,1.787-0.263,1.787s-1,0.208-1.25,1.333S525.17,297.891,526.407,297.849z"/>
					<path id="XMLID_396_" style="fill:#FFFFFF;" d="M509.419,303.698l5.375,3.124c0,0,3.208-2.167,4.833-2.167
						c0,0,1.542-2.183,3.375-2.946l-5.582-3.512c0,0-2.043,0.458-2.502,2.167C514.919,300.364,511.002,299.8,509.419,303.698z"/>
					<polygon id="XMLID_395_" style="fill:#FFFFFF;" points="506.544,304.614 512.336,308.072 508.586,310.465 502.461,306.822 
											"/>
					<polygon id="XMLID_394_" style="fill:#6B4E2F;" points="505.502,301.593 506.908,302.249 512.336,299.249 512.336,298.468 
						510.877,298.03 505.502,300.999 					"/>
				</g>
			</g>
			<path id="XMLID_429_" style="fill:#AFA58E;" d="M512.054,370.341c-2.06,0.3-4.59,0.38-7.85,0.01
				c-7.22-0.82-17.75-7.48-24.61-12.36l4.82-2.79L512.054,370.341z"/>
		</g>
	</g>
	<g id="XMLID_402_">
		<g id="XMLID_288_">
			<path id="XMLID_446_" style="fill:#AFA58E;" d="M382.02,222.39c-12.02,7.22-33.81,17.56-40.48,14.11
				c-4.03-2.08-9.38-5.53-13.95-8.64l32.36-18.77L382.02,222.39z"/>
			<path id="XMLID_409_" style="fill:#AFA58E;" d="M374.83,200.17l-14.87,8.15l-21.93-12.02c7.16-4.17,13.06-7.42,13.06-7.42
				S364.49,195,374.83,200.17z"/>
			<path id="XMLID_416_" style="fill:#BCB2A2;" d="M389.61,217.13c-1.14,1.14-3.91,3.05-7.59,5.26l-22.07-13.3l-32.36,18.77
				c-5.32-3.61-9.6-6.76-9.6-6.76c-3.66-2.64-5.24-3.85-4.99-7.62c0.15-2.27,14.06-10.8,25.03-17.18l21.93,12.02l14.87-8.15
				c4.52,2.26,8.44,4.34,10.42,5.66C391.75,210.17,394.5,212.25,389.61,217.13z"/>
		</g>
		<g id="XMLID_49_">
			<g id="XMLID_22_">
				<polygon id="XMLID_98_" style="fill:#BBBCBF;" points="388.374,176.592 388.374,211.395 386.341,209.796 386.341,175.302 				
					"/>
				<polygon id="XMLID_97_" style="fill:#E6E6E7;" points="390.848,175.198 390.848,209.901 388.374,211.395 388.374,176.592 				
					"/>
				<polygon id="XMLID_96_" style="fill:#BBBCBF;" points="321.89,184.409 321.89,219.212 319.857,217.614 319.857,183.12 				"/>
				<polygon id="XMLID_95_" style="fill:#E6E6E7;" points="324.364,183.016 324.364,217.718 321.89,219.212 321.89,184.409 				"/>
				<polygon id="XMLID_94_" style="fill:#BBBCBF;" points="348.267,198.102 348.267,232.905 346.234,231.307 346.234,196.813 				
					"/>
				<polygon id="XMLID_93_" style="fill:#CC883D;" points="348.267,198.102 393.47,172.463 363.043,154.856 317.995,181.01 				"/>
				<polygon id="XMLID_92_" style="fill:#E6E6E7;" points="350.741,196.708 350.741,231.411 348.267,232.905 348.267,198.102 				
					"/>
				<polygon id="XMLID_91_" style="fill:#783A0B;" points="393.47,172.463 393.47,175.63 348.267,201.114 348.267,198.102 				"/>
				<polygon id="XMLID_90_" style="fill:#96531E;" points="348.267,201.114 317.995,183.97 317.995,181.01 348.267,198.102 				"/>
				<polygon id="XMLID_89_" style="fill:#808183;" points="324.364,187.577 324.364,194.911 346.234,207.428 346.234,199.962 				
					"/>
				<polygon id="XMLID_88_" style="fill:#A6A8AA;" points="350.741,206.931 386.409,186.207 386.35,179.61 350.741,199.719 				"/>
			</g>
			<g id="XMLID_134_">
				<polygon id="XMLID_137_" style="fill:#948478;" points="339.288,186.527 347.438,191.234 354.767,186.527 346.625,181.823 				
					"/>
				<polygon id="XMLID_136_" style="fill:#564C44;" points="339.288,186.527 339.288,188.586 347.414,193.33 347.414,191.234 				
					"/>
				<polygon id="XMLID_135_" style="fill:#BDB39B;" points="354.767,186.527 347.414,191.234 347.414,193.33 354.767,188.366 				
					"/>
			</g>
			<path id="XMLID_132_" style="fill:#6B4E2F;" d="M322.799,156.067l0.328,21.963l2.534-1.551v-20.343v-0.068
				c0-0.79-0.641-1.431-1.431-1.431l0,0C323.44,154.637,322.799,155.277,322.799,156.067z"/>
			<path id="XMLID_140_" style="fill:#6B4E2F;" d="M340.105,148.164v20.009l2.861-1.697v-18.244v-0.068
				c0-0.79-0.641-1.431-1.431-1.431l0,0C340.745,146.734,340.105,147.374,340.105,148.164z"/>
			<polygon id="XMLID_138_" style="fill:#434244;" points="325.661,166.832 340.105,159.203 340.105,148.546 325.661,156.463 			"/>
			<g id="XMLID_83_">
				<polygon id="XMLID_143_" style="fill:#FFFFFF;" points="362.6,174.648 380.005,165.167 383.341,149.013 365.822,157.763 				"/>
				<polygon id="XMLID_145_" style="fill:#D0D1D3;" points="354.078,170.668 362.6,174.648 364.494,164.723 				"/>
			</g>
		</g>
	</g>
	<g id="XMLID_516_">
		<ellipse id="XMLID_517_" style="fill:#BCB2A2;" cx="128.293" cy="281.229" rx="17.75" ry="8.212"/>
		<g id="XMLID_74_">
			<g id="XMLID_76_">
				<path id="XMLID_108_" style="fill:#783A0B;" d="M117.278,260.023v16.343c0,0,1.509,5.986,10.349,5.986
					c2.56,0,4.531-0.399,6.03-0.949c2.598-0.952,4.319-3.427,4.319-6.194v-15.983L117.278,260.023z"/>
				<path id="XMLID_102_" style="fill:#8F8400;" d="M126.204,260c0,0,2.093-9.866,7.872-13.054v3.288c0,0,2.691-3.787,8.869-4.484
					l-0.797,1.893c0,0,3.488-1.495,8.271-0.697c0,0-3.089,4.982-5.581,5.929l2.491,1.345c0,0-4.584,2.691-7.474,2.99l1.993,2.192
					C141.849,259.402,132.282,265.281,126.204,260z"/>
				<path id="XMLID_79_" style="fill:#8AA345;" d="M123.91,259.185c0,0-3.089-5.581-2.99-11.061l1.494,1.196
					c0,0-0.298-4.783,1.496-9.567l0.897,2.292c0,0,3.488-6.178,8.171-8.171l-0.997,9.567l3.687-0.797l-2.292,5.481l2.292-0.897
					c0,0-1.395,6.677-3.288,9.566c-1.893,2.89-4.753,5.182-4.753,5.182S124.408,262.673,123.91,259.185z"/>
			</g>
			<path id="XMLID_219_" style="fill:#8F8400;" d="M126.204,261.863c0,0-3.219-10.962-8.002-13.054v1.993
				c0,0-3.488-4.484-11.958-4.883l5.929,5.929l-3.039,0.15C109.133,251.998,116.568,263.557,126.204,261.863z"/>
		</g>
	</g>
	<g id="XMLID_529_">
		<polygon id="XMLID_71_" style="fill:#96531E;" points="452.268,184.314 452.268,222.84 552.198,279.772 552.198,240.207 		"/>
		<polygon id="XMLID_47_" style="fill:#783A0B;" points="552.198,240.207 576.25,228.656 576.25,267.071 552.198,279.772 		"/>
		<polygon id="XMLID_187_" style="fill:#CC883D;" points="452.268,184.314 552.198,240.207 576.25,228.656 477.25,175.198 		"/>
		<polygon id="XMLID_221_" style="fill:#783A0B;" points="456.734,191.747 548.25,242.418 548.25,258.439 456.734,206.651 		"/>
		<polygon id="XMLID_283_" style="fill:#5E2C0B;" points="456.734,205.833 470.044,199.219 456.734,191.747 		"/>
		<g id="XMLID_527_">
			<g id="XMLID_358_">
				<polygon id="XMLID_367_" style="fill:#4675B8;" points="485.975,175.587 485.975,187.5 487.643,188.482 487.643,176.425 				"/>
				<polygon id="XMLID_366_" style="fill:#D8DE3F;" points="487.643,176.425 495.113,173.254 495.113,184.79 487.643,188.482 				
					"/>
				<polygon id="XMLID_365_" style="fill:#BDB39B;" points="485.975,175.587 493.498,172.577 495.113,173.254 487.643,176.425 				
					"/>
			</g>
			<g id="XMLID_348_">
				<polygon id="XMLID_353_" style="fill:#5BA69C;" points="488.668,177.51 488.668,189.424 490.336,190.406 490.336,178.349 				
					"/>
				<polygon id="XMLID_350_" style="fill:#4675B8;" points="490.336,178.349 497.806,175.178 497.806,186.714 490.336,190.406 				
					"/>
				<polygon id="XMLID_349_" style="fill:#BDB39B;" points="488.668,177.51 496.19,174.501 497.806,175.178 490.336,178.349 				"/>
			</g>
			<g id="XMLID_344_">
				<polygon id="XMLID_347_" style="fill:#CF4339;" points="491.319,179.258 491.319,191.171 492.987,192.153 492.987,180.096 				
					"/>
				<polygon id="XMLID_346_" style="fill:#E0922F;" points="492.987,180.096 500.457,176.925 500.457,188.461 492.987,192.153 				
					"/>
				<polygon id="XMLID_345_" style="fill:#BDB39B;" points="491.319,179.258 498.842,176.248 500.457,176.925 492.987,180.096 				
					"/>
			</g>
			<g id="XMLID_372_">
				<polygon id="XMLID_375_" style="fill:#4675B8;" points="470.618,167.722 470.618,179.635 472.286,180.618 472.286,168.56 				
					"/>
				<polygon id="XMLID_374_" style="fill:#D8DE3F;" points="472.286,168.56 479.756,165.39 479.756,176.925 472.286,180.618 				"/>
				<polygon id="XMLID_373_" style="fill:#BDB39B;" points="470.618,167.722 478.14,164.712 479.756,165.39 472.286,168.56 				"/>
			</g>
			<g id="XMLID_368_">
				<polygon id="XMLID_371_" style="fill:#5BA69C;" points="473.311,169.646 473.311,181.559 474.979,182.542 474.979,170.484 				
					"/>
				<polygon id="XMLID_370_" style="fill:#4675B8;" points="474.979,170.484 482.449,167.314 482.449,178.849 474.979,182.542 				
					"/>
				<polygon id="XMLID_369_" style="fill:#BDB39B;" points="473.311,169.646 480.833,166.636 482.449,167.314 474.979,170.484 				
					"/>
			</g>
			<g id="XMLID_304_">
				<polygon id="XMLID_307_" style="fill:#CF4339;" points="475.962,171.393 475.962,183.306 477.63,184.289 477.63,172.232 				"/>
				<polygon id="XMLID_306_" style="fill:#E0922F;" points="477.63,172.232 485.1,169.061 485.1,180.596 477.63,184.289 				"/>
				<polygon id="XMLID_305_" style="fill:#BDB39B;" points="475.962,171.393 483.484,168.383 485.1,169.061 477.63,172.232 				"/>
			</g>
			<g id="XMLID_340_">
				<polygon id="XMLID_343_" style="fill:#5A308D;" points="495.113,181.704 495.113,193.617 496.781,194.6 496.781,182.542 				"/>
				<polygon id="XMLID_342_" style="fill:#882461;" points="496.781,182.542 504.251,179.372 504.251,190.907 496.781,194.6 				"/>
				<polygon id="XMLID_341_" style="fill:#BDB39B;" points="495.113,181.704 502.635,178.694 504.251,179.372 496.781,182.542 				
					"/>
			</g>
			<g id="XMLID_336_">
				<polygon id="XMLID_339_" style="fill:#4675B8;" points="497.806,183.628 497.806,195.541 499.474,196.523 499.474,184.466 				
					"/>
				<polygon id="XMLID_338_" style="fill:#65A8DF;" points="499.474,184.466 506.944,181.296 506.944,192.831 499.474,196.523 				
					"/>
				<polygon id="XMLID_337_" style="fill:#BDB39B;" points="497.806,183.628 505.328,180.618 506.944,181.296 499.474,184.466 				
					"/>
			</g>
			<g id="XMLID_332_">
				<polygon id="XMLID_335_" style="fill:#51924B;" points="500.457,185.375 500.457,197.288 502.125,198.271 502.125,186.213 				
					"/>
				<polygon id="XMLID_334_" style="fill:#9FC54D;" points="502.125,186.213 509.595,183.043 509.595,194.578 502.125,198.271 				
					"/>
				<polygon id="XMLID_333_" style="fill:#BDB39B;" points="500.457,185.375 507.979,182.365 509.595,183.043 502.125,186.213 				
					"/>
			</g>
			<g id="XMLID_328_">
				<polygon id="XMLID_331_" style="fill:#4675B8;" points="510.641,191.308 510.641,203.221 512.309,204.204 512.309,192.146 				
					"/>
				<polygon id="XMLID_330_" style="fill:#D8DE3F;" points="512.309,192.146 519.779,188.976 519.779,200.511 512.309,204.204 				
					"/>
				<polygon id="XMLID_329_" style="fill:#BDB39B;" points="510.641,191.308 518.163,188.298 519.779,188.976 512.309,192.146 				
					"/>
			</g>
			<g id="XMLID_324_">
				<polygon id="XMLID_327_" style="fill:#5BA69C;" points="513.334,193.232 513.334,205.145 515.002,206.128 515.002,194.07 				
					"/>
				<polygon id="XMLID_326_" style="fill:#4675B8;" points="515.002,194.07 522.472,190.9 522.472,202.435 515.002,206.128 				"/>
				<polygon id="XMLID_325_" style="fill:#BDB39B;" points="513.334,193.232 520.856,190.222 522.472,190.9 515.002,194.07 				"/>
			</g>
			<g id="XMLID_320_">
				<polygon id="XMLID_323_" style="fill:#CF4339;" points="515.985,194.979 515.985,206.892 517.653,207.875 517.653,195.818 				
					"/>
				<polygon id="XMLID_322_" style="fill:#E0922F;" points="517.653,195.818 525.123,192.647 525.123,204.182 517.653,207.875 				
					"/>
				<polygon id="XMLID_321_" style="fill:#BDB39B;" points="515.985,194.979 523.507,191.969 525.123,192.647 517.653,195.818 				
					"/>
			</g>
			<g id="XMLID_316_">
				<polygon id="XMLID_319_" style="fill:#5A308D;" points="519.779,197.425 519.779,209.339 521.446,210.321 521.446,198.264 				
					"/>
				<polygon id="XMLID_318_" style="fill:#882461;" points="521.446,198.264 528.917,195.093 528.917,206.628 521.446,210.321 				
					"/>
				<polygon id="XMLID_317_" style="fill:#BDB39B;" points="519.779,197.425 527.301,194.416 528.917,195.093 521.446,198.264 				
					"/>
			</g>
			<g id="XMLID_388_">
				<polygon id="XMLID_391_" style="fill:#5BA69C;" points="550.851,215.875 550.851,227.788 552.519,228.771 552.519,216.713 				
					"/>
				<polygon id="XMLID_390_" style="fill:#4675B8;" points="552.519,216.713 559.989,213.543 559.989,225.078 552.519,228.771 				
					"/>
				<polygon id="XMLID_389_" style="fill:#BDB39B;" points="550.851,215.875 558.373,212.865 559.989,213.543 552.519,216.713 				
					"/>
			</g>
			<g id="XMLID_384_">
				<polygon id="XMLID_387_" style="fill:#CF4339;" points="554.395,217.31 554.395,229.223 556.063,230.206 556.063,218.148 				
					"/>
				<polygon id="XMLID_386_" style="fill:#E0922F;" points="556.063,218.148 563.533,214.978 563.533,226.513 556.063,230.206 				
					"/>
				<polygon id="XMLID_385_" style="fill:#BDB39B;" points="554.395,217.31 561.917,214.3 563.533,214.978 556.063,218.148 				"/>
			</g>
			<g id="XMLID_380_">
				<polygon id="XMLID_383_" style="fill:#5A308D;" points="557.296,220.068 557.296,231.981 558.964,232.964 558.964,220.906 				
					"/>
				<polygon id="XMLID_382_" style="fill:#882461;" points="558.964,220.906 566.434,217.736 566.434,229.271 558.964,232.964 				
					"/>
				<polygon id="XMLID_381_" style="fill:#BDB39B;" points="557.296,220.068 564.818,217.058 566.434,217.736 558.964,220.906 				
					"/>
			</g>
			<g id="XMLID_312_">
				<polygon id="XMLID_315_" style="fill:#4675B8;" points="522.472,199.349 522.472,211.262 524.139,212.245 524.139,200.188 				
					"/>
				<polygon id="XMLID_314_" style="fill:#65A8DF;" points="524.139,200.188 531.609,197.017 531.609,208.552 524.139,212.245 				
					"/>
				<polygon id="XMLID_313_" style="fill:#BDB39B;" points="522.472,199.349 529.994,196.34 531.609,197.017 524.139,200.188 				
					"/>
			</g>
			<g id="XMLID_308_">
				<polygon id="XMLID_311_" style="fill:#51924B;" points="525.123,201.096 525.123,213.01 526.791,213.992 526.791,201.935 				
					"/>
				<polygon id="XMLID_310_" style="fill:#9FC54D;" points="526.791,201.935 534.261,198.764 534.261,210.299 526.791,213.992 				
					"/>
				<polygon id="XMLID_309_" style="fill:#BDB39B;" points="525.123,201.096 532.645,198.087 534.261,198.764 526.791,201.935 				
					"/>
			</g>
			<g id="XMLID_290_">
				<polygon id="XMLID_300_" style="fill:#4675B8;" points="536.943,207.359 536.943,219.272 538.611,220.255 538.611,208.197 				
					"/>
				<polygon id="XMLID_298_" style="fill:#65A8DF;" points="538.611,208.197 546.081,205.027 546.081,216.562 538.611,220.255 				
					"/>
				<polygon id="XMLID_296_" style="fill:#BDB39B;" points="536.943,207.359 544.465,204.349 546.081,205.027 538.611,208.197 				
					"/>
			</g>
			<g id="XMLID_284_">
				<polygon id="XMLID_289_" style="fill:#51924B;" points="539.511,209.357 539.511,221.27 541.179,222.253 541.179,210.196 				
					"/>
				<polygon id="XMLID_287_" style="fill:#9FC54D;" points="541.179,210.196 548.649,207.025 548.649,218.56 541.179,222.253 				
					"/>
				<polygon id="XMLID_285_" style="fill:#BDB39B;" points="539.511,209.357 547.034,206.348 548.649,207.025 541.179,210.196 				
					"/>
			</g>
		</g>
	</g>
</g>
</svg>
